<?xml version="1.0" encoding="UTF-8"?>
<svg width="50px" height="50px" viewBox="0 0 50 50" version="1.1" xmlns="http://www.w3.org/2000/svg" xmlns:xlink="http://www.w3.org/1999/xlink">
    <!-- Generator: Sketch 51.2 (57519) - http://www.bohemiancoding.com/sketch -->
    <title>wp-1</title>
    <desc>Created with Sketch.</desc>
    <defs></defs>
    <g id="wp-1" stroke="none" stroke-width="1" fill="none" fill-rule="evenodd">
        <rect id="Rectangle-3" fill-rule="nonzero" x="0" y="0" width="50" height="50"></rect>
        <path d="M11.0850825,22.2222222 C10.5730135,22.2222222 10.1574213,22.637037 10.1574213,23.1481481 L10.1574213,45.3703704 C10.1574213,47.9231481 12.2381653,50 14.7957271,50 L35.2042729,50 C37.7618347,50 39.8425787,47.9231481 39.8425787,45.3703704 L39.8425787,23.1481481 C39.8425787,22.637037 39.4269865,22.2222222 38.9149175,22.2222222 L11.0850825,22.2222222 Z M35.2042729,48.1481481 L14.7957271,48.1481481 C13.2613756,48.1481481 12.0127436,46.9018519 12.0127436,45.3703704 L12.0127436,24.0740741 L37.9872564,24.0740741 L37.9872564,45.3703704 C37.9872564,46.9018519 36.7386244,48.1481481 35.2042729,48.1481481 Z" id="Shape" fill="#323336" fill-rule="nonzero"></path>
        <path d="M45.1302474,8.50092593 C45.4540011,7.83333333 45.4985289,7.07962963 45.254554,6.3787037 C45.0105791,5.67777778 44.5077867,5.11296296 43.8463643,4.79351852 L38.4585082,2.13055556 C37.7896645,1.80648148 37.0345484,1.76388889 36.3323088,2.00648148 C35.6300693,2.25 35.064196,2.75185185 34.7404423,3.41944444 L28.7106447,15.8462963 L28.7106447,0.925925926 C28.7106447,0.414814815 28.2950525,0 27.7829835,0 L22.2170165,0 C19.6594546,0 17.5787106,2.07685185 17.5787106,4.62962963 L17.5787106,12.037037 C17.5787106,12.5481481 17.9943028,12.962963 18.5063718,12.962963 C19.0184408,12.962963 19.434033,12.5481481 19.434033,12.037037 L19.434033,4.62962963 C19.434033,3.42407407 20.2123407,2.40648148 21.2893553,2.02222222 L21.2893553,22.2222222 L19.7772676,22.2222222 L13.1676818,8.60462963 L11.5498407,5.2712963 C11.226087,4.6037037 10.6611413,4.10185185 9.95797414,3.85833333 C9.25573463,3.61481481 8.50061844,3.65925926 7.83177474,3.98240741 L6.16198463,4.78981481 C5.49314093,5.11296296 4.99034858,5.67685185 4.74637369,6.3787037 C4.5023988,7.07962963 4.54692654,7.83333333 4.87068028,8.50092593 L11.5303598,22.2222222 L11.0850825,22.2222222 C10.5730135,22.2222222 39.4269865,22.2222222 38.9149175,22.2222222 L38.4696402,22.2222222 L38.6978448,21.7527778 C38.6972264,21.7533951 40.8413606,17.3361111 45.1302474,8.50092593 Z M37.6421664,3.79259259 L43.0300225,6.45555556 C43.2526612,6.56388889 43.4205678,6.75092593 43.502202,6.98518519 C43.5829085,7.21851852 43.568066,7.47037037 43.4604573,7.69259259 L42.8584052,8.93240741 L38.6839299,6.91388889 C38.22381,6.69259259 37.6681409,6.88240741 37.4445746,7.34351852 C37.2210082,7.8037037 37.4139618,8.35740741 37.8750094,8.58055556 L42.0494846,10.5990741 L41.0494659,12.6592593 L36.8286076,10.6175926 C36.3666323,10.3953704 35.8128186,10.587037 35.5892522,11.0472222 C35.3656859,11.5074074 35.5586394,12.0611111 36.019687,12.2842593 L40.2405454,14.3259259 L39.2405266,16.3861111 L34.9732852,14.3222222 C34.5122376,14.1009259 33.9574963,14.2916667 33.7339299,14.7518519 C33.5103636,15.212037 33.7033171,15.7657407 34.1643647,15.9888889 L38.4316061,18.0527778 L37.4315873,20.112963 L33.1170352,18.0268519 C32.6559876,17.8046296 32.1012463,17.9962963 31.8776799,18.4564815 C31.6541136,18.9166667 31.8470671,19.4703704 32.3081147,19.6935185 L36.6226668,21.7796296 L36.4083771,22.2222222 L28.7106447,22.2222222 L28.7106447,20.0944444 L36.4102324,4.22592593 C36.6337987,3.76666667 37.1894678,3.575 37.6421664,3.79259259 Z M23.1446777,12.962963 L23.1446777,1.85185185 L26.8553223,1.85185185 L26.8553223,12.962963 L23.1446777,12.962963 Z M26.8553223,14.8148148 L26.8553223,22.2222222 L23.1446777,22.2222222 L23.1446777,14.8148148 L26.8553223,14.8148148 Z M6.97090517,6.45555556 L8.64069528,5.64814815 C8.86333396,5.53981481 9.11380247,5.525 9.34942841,5.60648148 C9.58319903,5.68796296 9.77151424,5.85555556 9.8800506,6.07777778 L11.0934314,8.57777778 L7.7538512,10.1925926 L6.54047039,7.69259259 C6.43193403,7.47037037 6.41709145,7.21944444 6.49872564,6.98518519 C6.58035982,6.75185185 6.74826649,6.56388889 6.97090517,6.45555556 Z M11.9023519,10.2444444 L17.7150768,22.2222222 L13.5916229,22.2222222 L8.56277174,11.8592593 L11.9023519,10.2444444 Z M12.0127436,24.0740741 L37.9872564,24.0740741 L12.0127436,24.0740741 Z" id="Shape" fill="#00E9A6" fill-rule="nonzero"></path>
    </g>
</svg>