<?xml version="1.0" encoding="UTF-8"?>
<svg width="50px" height="50px" viewBox="0 0 50 50" version="1.1" xmlns="http://www.w3.org/2000/svg" xmlns:xlink="http://www.w3.org/1999/xlink">
    <!-- Generator: Sketch 51.2 (57519) - http://www.bohemiancoding.com/sketch -->
    <title>wp-2</title>
    <desc>Created with Sketch.</desc>
    <defs></defs>
    <g id="wp-2" stroke="none" stroke-width="1" fill="none" fill-rule="evenodd">
        <rect id="Rectangle-3" fill-rule="nonzero" x="0" y="0" width="50" height="50"></rect>
        <g id="noun_bulb_1003896" transform="translate(3.000000, 0.000000)" fill-rule="nonzero">
            <g id="Group">
                <path d="M35.9333333,21.4583333 C35.9333333,13.6458333 29.3333333,7.29166667 21.3714286,7.70833333 C14.247619,8.02083333 8.38095238,13.8541667 8.06666667,20.8333333 C7.96190476,24.375 9.11428571,27.8125 11.4190476,30.4166667 C13.6190476,32.9166667 14.7714286,36.3541667 14.7714286,40 L14.7714286,40.625 C14.7714286,41.25 15.1904762,41.6666667 15.8190476,41.6666667 L28.0761905,41.6666667 C28.7047619,41.6666667 29.1238095,41.25 29.1238095,40.625 L29.1238095,39.8958333 C29.1238095,36.4583333 30.3809524,33.125 32.7904762,30.1041667 C34.7809524,27.7083333 35.9333333,24.6875 35.9333333,21.4583333 Z M27.1333333,39.5833333 L16.9714286,39.5833333 C16.8666667,35.625 15.5047619,31.875 13.0952381,29.0625 C11.1047619,26.7708333 10.1619048,23.8541667 10.2666667,20.9375 C10.5809524,14.8958333 15.5047619,10 21.4761905,9.6875 C28.2857143,9.375 33.8380952,14.7916667 33.8380952,21.4583333 C33.8380952,24.1666667 32.8952381,26.6666667 31.2190476,28.8541667 C28.6,32.0833333 27.1333333,35.8333333 27.1333333,39.5833333 Z" id="Shape" fill="#FF5757"></path>
                <path d="M28.0761905,44.0625 L16.2380952,44.0625 C15.6095238,44.0625 15.1904762,44.4791667 15.1904762,45.1041667 C15.1904762,45.7291667 15.6095238,46.1458333 16.2380952,46.1458333 L28.0761905,46.1458333 C28.7047619,46.1458333 29.1238095,45.7291667 29.1238095,45.1041667 C29.1238095,44.4791667 28.7047619,44.0625 28.0761905,44.0625 Z" id="Shape" fill="#323336"></path>
                <path d="M25.9809524,47.9166667 L18.3333333,47.9166667 C17.7047619,47.9166667 17.2857143,48.3333333 17.2857143,48.9583333 C17.2857143,49.5833333 17.7047619,50 18.3333333,50 L25.9809524,50 C26.6095238,50 27.0285714,49.5833333 27.0285714,48.9583333 C27.0285714,48.3333333 26.6095238,47.9166667 25.9809524,47.9166667 Z" id="Shape" fill="#323336"></path>
                <path d="M22,6.04166667 C22.6285714,6.04166667 23.047619,5.625 23.047619,5 L23.047619,1.04166667 C23.047619,0.416666667 22.6285714,0 22,0 C21.3714286,0 20.952381,0.416666667 20.952381,1.04166667 L20.952381,5 C20.952381,5.625 21.3714286,6.04166667 22,6.04166667 Z" id="Shape" fill="#323336"></path>
                <path d="M33.5238095,10.9375 C33.8380952,10.9375 34.047619,10.8333333 34.2571429,10.625 L36.9809524,7.8125 C37.4,7.39583333 37.4,6.77083333 36.9809524,6.35416667 C36.5619048,5.9375 35.9333333,5.9375 35.5142857,6.35416667 L32.7904762,9.16666667 C32.3714286,9.58333333 32.3714286,10.2083333 32.7904762,10.625 C33,10.8333333 33.3142857,10.9375 33.5238095,10.9375 Z" id="Shape" fill="#323336"></path>
                <path d="M9.74285714,32.8125 L7.01904762,35.625 C6.6,36.0416667 6.6,36.6666667 7.01904762,37.0833333 C7.22857143,37.2916667 7.43809524,37.3958333 7.75238095,37.3958333 C8.06666667,37.3958333 8.27619048,37.2916667 8.48571429,37.0833333 L11.2095238,34.2708333 C11.6285714,33.8541667 11.6285714,33.2291667 11.2095238,32.8125 C10.7904762,32.2916667 10.1619048,32.3958333 9.74285714,32.8125 Z" id="Shape" fill="#323336"></path>
                <path d="M42.2190476,20.625 L38.3428571,20.625 C37.7142857,20.625 37.2952381,21.0416667 37.2952381,21.6666667 C37.2952381,22.2916667 37.7142857,22.7083333 38.3428571,22.7083333 L42.2190476,22.7083333 C42.847619,22.7083333 43.2666667,22.2916667 43.2666667,21.6666667 C43.2666667,21.0416667 42.7428571,20.625 42.2190476,20.625 Z" id="Shape" fill="#323336"></path>
                <path d="M5.65714286,20.625 L1.78095238,20.625 C1.15238095,20.625 0.733333333,21.0416667 0.733333333,21.6666667 C0.733333333,22.2916667 1.15238095,22.7083333 1.78095238,22.7083333 L5.65714286,22.7083333 C6.28571429,22.7083333 6.7047619,22.2916667 6.7047619,21.6666667 C6.7047619,21.0416667 6.28571429,20.625 5.65714286,20.625 Z" id="Shape" fill="#323336"></path>
                <path d="M34.2571429,32.8125 C33.8380952,32.3958333 33.2095238,32.3958333 32.7904762,32.8125 C32.3714286,33.2291667 32.3714286,33.8541667 32.7904762,34.2708333 L35.5142857,37.0833333 C35.7238095,37.2916667 36.0380952,37.3958333 36.247619,37.3958333 C36.5619048,37.3958333 36.7714286,37.2916667 36.9809524,37.0833333 C37.4,36.6666667 37.4,36.0416667 36.9809524,35.625 L34.2571429,32.8125 Z" id="Shape" fill="#323336"></path>
                <path d="M9.74285714,10.625 C9.95238095,10.8333333 10.2666667,10.9375 10.4761905,10.9375 C10.7904762,10.9375 11,10.8333333 11.2095238,10.625 C11.6285714,10.2083333 11.6285714,9.58333333 11.2095238,9.16666667 L8.48571429,6.35416667 C8.06666667,5.9375 7.43809524,5.9375 7.01904762,6.35416667 C6.6,6.77083333 6.6,7.39583333 7.01904762,7.8125 L9.74285714,10.625 Z" id="Shape" fill="#323336"></path>
            </g>
        </g>
    </g>
</svg>