<?xml version="1.0" encoding="UTF-8"?>
<svg width="50px" height="50px" viewBox="0 0 50 50" version="1.1" xmlns="http://www.w3.org/2000/svg" xmlns:xlink="http://www.w3.org/1999/xlink">
    <!-- Generator: Sketch 51.2 (57519) - http://www.bohemiancoding.com/sketch -->
    <title>wp-3</title>
    <desc>Created with Sketch.</desc>
    <defs></defs>
    <g id="wp-3" stroke="none" stroke-width="1" fill="none" fill-rule="evenodd">
        <rect id="Rectangle-3" fill-rule="nonzero" x="0" y="0" width="50" height="50"></rect>
        <g id="Group" transform="translate(3.000000, 3.000000)" fill-rule="nonzero">
            <path d="M25.9416667,22.9166667 L36.025,22.9166667 C36.4833333,24.75 38.0416667,26.0333333 39.9666667,26.0333333 C42.1666667,26.0333333 44,24.2 44,22 C44,20.075 42.625,18.5166667 40.8833333,18.0583333 L40.8833333,7.975 C42.7166667,7.51666667 44,5.95833333 44,4.03333333 C44,1.83333333 42.1666667,0 39.9666667,0 C38.0416667,0 36.4833333,1.375 36.025,3.11666667 L25.9416667,3.11666667 C25.4833333,1.375 23.925,0 22,0 C20.075,0 18.5166667,1.375 18.0583333,3.11666667 L7.975,3.11666667 C7.60833333,1.375 5.95833333,0 4.03333333,0 C1.83333333,0 0,1.83333333 0,4.03333333 C0,5.95833333 1.375,7.51666667 3.11666667,7.975 L3.11666667,18.0583333 C1.375,18.5166667 0,20.075 0,22 C0,23.925 1.375,25.4833333 3.11666667,25.9416667 L3.11666667,36.025 C1.28333333,36.4833333 0,38.0416667 0,39.9666667 C0,42.1666667 1.83333333,44 4.03333333,44 C6.23333333,44 8.06666667,42.1666667 8.06666667,39.9666667 C8.06666667,38.0416667 6.69166667,36.4833333 4.95,36.025 L4.95,25.9416667 C6.41666667,25.575 7.60833333,24.3833333 7.975,22.9166667 L18.0583333,22.9166667 C18.425,24.3833333 19.6166667,25.575 21.0833333,25.9416667 L21.0833333,36.025 C19.25,36.4833333 17.9666667,38.0416667 17.9666667,39.9666667 C17.9666667,42.1666667 19.8,44 22,44 C23.925,44 25.4833333,42.625 25.9416667,40.8833333 L36.025,40.8833333 C36.4833333,42.7166667 38.0416667,44 39.9666667,44 C42.1666667,44 44,42.1666667 44,39.9666667 C44,37.7666667 42.1666667,35.9333333 39.9666667,35.9333333 C38.0416667,35.9333333 36.4833333,37.3083333 36.025,39.05 L25.9416667,39.05 C25.575,37.5833333 24.3833333,36.3916667 22.9166667,36.025 L22.9166667,25.9416667 C24.3833333,25.575 25.575,24.3833333 25.9416667,22.9166667 Z M37.7666667,39.875 C37.7666667,38.6833333 38.775,37.675 39.9666667,37.675 C41.1583333,37.675 42.1666667,38.6833333 42.1666667,39.875 C42.1666667,41.0666667 41.1583333,42.075 39.9666667,42.075 C38.775,42.075 37.7666667,41.0666667 37.7666667,39.875 C37.7666667,39.9666667 37.7666667,39.9666667 37.7666667,39.875 C37.7666667,39.9666667 37.7666667,39.875 37.7666667,39.875 Z M42.1666667,22 C42.1666667,23.1916667 41.1583333,24.2 39.9666667,24.2 C38.775,24.2 37.7666667,23.1916667 37.7666667,22 C37.7666667,22 37.7666667,22 37.7666667,22 C37.7666667,20.8083333 38.775,19.8 39.9666667,19.8 C39.9666667,19.8 39.9666667,19.8 39.9666667,19.8 C41.1583333,19.8 42.1666667,20.8083333 42.1666667,22 Z M39.9666667,1.83333333 C41.1583333,1.83333333 42.1666667,2.84166667 42.1666667,4.03333333 C42.1666667,5.225 41.1583333,6.23333333 39.9666667,6.23333333 C39.4166667,6.23333333 38.8666667,5.95833333 38.4083333,5.59166667 C37.95,5.225 37.675,4.58333333 37.675,3.94166667 C37.675,3.94166667 37.675,3.94166667 37.675,3.94166667 C37.7666667,2.84166667 38.6833333,1.83333333 39.9666667,1.83333333 Z M25.9416667,4.95 L36.025,4.95 C36.1166667,5.13333333 36.3916667,7.15 39.05,7.975 L39.05,18.0583333 C36.6666667,18.6083333 36.025,20.9 36.025,21.0833333 L25.9416667,21.0833333 C25.4833333,18.7916667 23.1,18.0583333 22.9166667,18.0583333 L22.9166667,7.975 C23.1,7.975 25.3916667,7.33333333 25.9416667,4.95 Z M22,1.83333333 C23.1916667,1.83333333 24.2,2.84166667 24.2,4.03333333 C24.2,5.225 23.1916667,6.23333333 22,6.23333333 C21.45,6.23333333 20.9,6.05 20.5333333,5.68333333 C20.075,5.31666667 19.8,4.675 19.8,4.03333333 C19.8,4.03333333 19.8,4.03333333 19.8,4.03333333 C19.8,2.84166667 20.8083333,1.83333333 22,1.83333333 Z M1.83333333,4.03333333 C1.83333333,2.84166667 2.84166667,1.83333333 4.03333333,1.83333333 C5.225,1.83333333 6.23333333,2.84166667 6.23333333,4.03333333 C6.23333333,5.225 5.31666667,6.23333333 4.03333333,6.23333333 C2.84166667,6.23333333 1.83333333,5.31666667 1.83333333,4.03333333 Z M6.23333333,39.9666667 C6.23333333,41.1583333 5.225,42.1666667 4.03333333,42.1666667 C2.84166667,42.1666667 1.83333333,41.1583333 1.83333333,39.9666667 C1.83333333,38.775 2.84166667,37.7666667 4.03333333,37.7666667 C4.03333333,37.7666667 4.03333333,37.7666667 4.03333333,37.7666667 C4.03333333,37.7666667 4.03333333,37.7666667 4.03333333,37.7666667 C5.31666667,37.7666667 6.23333333,38.6833333 6.23333333,39.9666667 Z M4.03333333,24.2 C2.84166667,24.2 1.83333333,23.1916667 1.83333333,22 C1.83333333,20.8083333 2.84166667,19.8 4.03333333,19.8 C4.03333333,19.8 4.03333333,19.8 4.03333333,19.8 C4.76666667,19.8 5.31666667,20.1666667 5.775,20.625 C6.05,20.9916667 6.23333333,21.45 6.23333333,22 C6.23333333,23.1916667 5.31666667,24.2 4.03333333,24.2 Z M18.0583333,21.0833333 L7.975,21.0833333 C7.51666667,18.7 5.13333333,18.0583333 4.95,18.0583333 L4.95,7.975 C5.225,7.975 7.33333333,7.51666667 7.975,4.95 L18.0583333,4.95 C18.15,5.13333333 18.5166667,7.24166667 21.0833333,7.975 L21.0833333,18.0583333 C18.6083333,18.7 18.0583333,20.9 18.0583333,21.0833333 Z M24.2,39.9666667 C24.2,41.1583333 23.1916667,42.1666667 22,42.1666667 C20.8083333,42.1666667 19.8,41.1583333 19.8,39.9666667 C19.8,38.775 20.8083333,37.7666667 22,37.7666667 C22,37.7666667 22,37.7666667 22,37.7666667 C22,37.7666667 22,37.7666667 22,37.7666667 C23.1916667,37.7666667 24.2,38.6833333 24.2,39.9666667 Z M22,24.2 C20.8083333,24.2 19.8,23.1916667 19.8,22 C19.8,22 19.8,22 19.8,22 C19.8,20.8083333 20.8083333,19.8 22,19.8 C22.7333333,19.8 23.2833333,20.1666667 23.7416667,20.625 C24.0166667,20.9916667 24.2,21.45 24.2,22 C24.2,23.1916667 23.1916667,24.2 22,24.2 Z" id="Shape" fill="#323336"></path>
            <circle id="Oval-Copy" stroke="#9100FF" stroke-width="1.83333333" cx="22" cy="22" r="3.11666667"></circle>
            <circle id="Oval-Copy-2" stroke="#9100FF" stroke-width="1.83333333" cx="22" cy="39.9666667" r="3.11666667"></circle>
            <rect id="Rectangle-2" fill="#9100FF" x="21.0833333" y="7.33333333" width="1.83333333" height="11"></rect>
            <rect id="Rectangle-2-Copy" fill="#9100FF" x="21.0833333" y="25.6666667" width="1.83333333" height="11"></rect>
            <rect id="Rectangle-2-Copy-2" fill="#9100FF" transform="translate(30.250000, 40.058333) rotate(90.000000) translate(-30.250000, -40.058333) " x="29.3333333" y="34.1" width="1.83333333" height="11.9166667"></rect>
            <circle id="Oval" stroke="#9100FF" stroke-width="1.83333333" cx="22" cy="4.03333333" r="3.11666667"></circle>
            <circle id="Oval-Copy-3" stroke="#9100FF" stroke-width="1.83333333" cx="39.9666667" cy="39.9666667" r="3.11666667"></circle>
        </g>
    </g>
</svg>