<?xml version="1.0" encoding="UTF-8"?>
<svg width="50px" height="50px" viewBox="0 0 50 50" version="1.1" xmlns="http://www.w3.org/2000/svg" xmlns:xlink="http://www.w3.org/1999/xlink">
    <!-- Generator: Sketch 51.2 (57519) - http://www.bohemiancoding.com/sketch -->
    <title>wp-4</title>
    <desc>Created with Sketch.</desc>
    <defs></defs>
    <g id="wp-4" stroke="none" stroke-width="1" fill="none" fill-rule="evenodd">
        <rect id="Rectangle-3" fill-rule="nonzero" x="0" y="0" width="50" height="50"></rect>
        <g id="Group" transform="translate(3.000000, 3.000000)" fill-rule="nonzero">
            <path d="M5.89061346,4.9843583 C5.5119782,5.02135829 5.16641937,5.2936582 5.04220311,5.65320807 C4.91798685,6.01280795 5.02171315,6.4404078 5.29686461,6.70310771 L9.59373123,11.0000062 L5.29686461,15.2812548 C4.91269536,15.6466047 4.90220339,16.3322544 5.27501466,16.7092043 C5.64782343,17.0861542 6.33352409,17.0832542 6.70311387,16.7032043 L10.9999785,12.4062558 L15.2968451,16.7031043 C15.6664349,17.0832542 16.3521355,17.0861542 16.7249443,16.7091043 C17.0977536,16.3321544 17.0872616,15.6465547 16.7030944,15.2811548 L12.4062257,10.9999063 L16.7030924,6.70305771 C17.0106638,6.41415781 17.1025526,5.92010798 16.9193979,5.53995811 C16.7362438,5.15980824 16.2925597,4.92375832 15.874969,4.9843083 C15.6565999,5.01580829 15.4497193,5.12210825 15.2968451,5.2811582 L10.9999785,9.57800673 L6.70311187,5.2811582 C6.49483978,5.06775827 6.18740088,4.95540831 5.89061346,4.9842583 L5.89061346,4.9843583 Z M27.8905705,26.9843558 C27.5119353,27.0213558 27.1663764,27.2936557 27.0421602,27.6532056 C26.9179439,28.0128055 27.0216702,28.4404053 27.2968217,28.7031052 L31.5936883,33.0000037 L27.2968217,37.2812523 C26.9126524,37.6466022 26.9021605,38.3322519 27.2749717,38.7092018 C27.6477805,39.0861517 28.3334812,39.0832017 28.7030709,38.7032018 L32.9999356,34.4062533 L37.2968022,38.7031018 C37.666392,39.0832017 38.3520926,39.0861517 38.7249014,38.7091018 C39.0977107,38.3321519 39.0872187,37.6465022 38.7030514,37.2811523 L34.4061828,32.9999038 L38.7030494,28.7030052 C39.0106208,28.4141553 39.1025097,27.9200555 38.919355,27.5399056 C38.7362009,27.1598057 38.2925167,26.9237558 37.874926,26.9842558 C37.656557,27.0157558 37.4496764,27.1220558 37.2968022,27.2811557 L32.9999356,31.5781042 L28.7030689,27.2812557 C28.4947969,27.0678558 28.187358,26.9555058 27.8905705,26.9843558 Z" id="Shape" fill="#000000"></path>
            <path d="M29.9999414,0.999999659 C29.9999414,0.52859482 30.4203141,0 30.9999395,0 C34.9999317,0 42.9999161,0 42.9999161,0 C43.5234995,4.99999829e-05 43.9998621,0.476414838 43.9999141,0.999999659 L43.9999141,13.0000056 C44.0073706,13.5283054 43.528271,14.0142052 42.9999161,14.0142052 C42.4715611,14.0142052 41.992463,13.5283054 41.999918,13.0000056 L41.999918,3.40625884 L14.312472,31.0937544 C15.3693005,32.4489539 15.9999687,34.1526534 15.9999687,36.0000027 C15.9999687,40.4064512 12.4064067,44 7.99998434,44 C3.59356194,44 0,40.4064512 0,36.0000027 C0,31.5936042 3.59356194,28.0000055 7.99998434,28.0000055 C9.84279525,28.0000055 11.5370219,28.6353552 12.8905998,29.6875049 L40.5780458,1.99999932 C40.5780458,1.99999932 34.1926417,1.99999932 30.9999395,1.99999932 C30.4757,1.99999932 29.9999414,1.4714045 29.9999414,0.999999659 Z M7.99998434,30.0000048 C4.67443533,30.0000048 1.9999961,32.6744539 1.9999961,36.0000027 C1.9999961,39.3255516 4.67443533,42.0000007 7.99998434,42.0000007 C11.3255334,42.0000007 13.9999726,39.3255516 13.9999726,36.0000027 C13.9999726,32.6744539 11.3255334,30.0000048 7.99998434,30.0000048 Z" id="Combined-Shape" fill="#00BED4"></path>
        </g>
    </g>
</svg>